<?xml version="1.0" encoding="utf-8"?>
<!-- Generator: Adobe Illustrator 16.0.0, SVG Export Plug-In . SVG Version: 6.00 Build 0)  -->
<!DOCTYPE svg PUBLIC "-//W3C//DTD SVG 1.1//EN" "http://www.w3.org/Graphics/SVG/1.1/DTD/svg11.dtd">
<svg version="1.1" id="Layer_1" xmlns="http://www.w3.org/2000/svg" xmlns:xlink="http://www.w3.org/1999/xlink" x="0px" y="0px"
	 width="96.5px" height="24px" viewBox="0 0 96.5 24" enable-background="new 0 0 96.5 24" xml:space="preserve">
<g>
	<path fill="#24242D" d="M5.286,18.826c0.243-0.72,0.253-0.857-0.381-0.938l-0.412-0.049c-0.073-0.061-0.063-0.206,0.022-0.248
		c0.465,0.021,0.826,0.03,1.269,0.03c0.455,0,0.952-0.011,1.206-0.03c0.073,0.041,0.084,0.197-0.01,0.248l-0.18,0.049
		c-0.401,0.109-0.445,0.149-0.708,0.938l-0.328,0.978c-0.043,0.128-0.021,0.236,0.085,0.295c0.011,0.039,0,0.098-0.042,0.138
		c-0.73,0.237-1.66,0.445-2.22,0.445c-1.872,0-2.982-0.959-2.982-2.567c0-0.957,0.434-2.144,1.522-3.031
		c1.015-0.83,2.21-1.234,3.68-1.234c0.899,0,1.564,0.217,1.808,0.316c-0.18,0.355-0.391,0.928-0.497,1.312
		c-0.042,0.078-0.232,0.068-0.265-0.01c0.19-0.907-0.148-1.312-1.175-1.312c-1.247,0-2.072,0.444-2.769,1.058
		c-0.762,0.66-1.375,1.984-1.375,3.109c0,1.57,1.037,2.055,2.094,2.055c0.739,0,1.163-0.1,1.385-0.742L5.286,18.826z"/>
	<path fill="#24242D" d="M9.916,16.86c-0.127,0.406-0.116,0.415,0.423,0.415c1.1,0,2.199-0.701,2.232-1.787
		c0.021-0.77-0.476-1.203-1.385-1.203c-0.412,0-0.444,0.06-0.529,0.315L9.916,16.86z M9.599,15.409
		c0.316-0.938,0.264-1.026-0.095-1.066l-0.403-0.039c-0.053-0.078-0.042-0.207,0.053-0.246c0.603-0.069,1.205-0.08,1.798-0.08
		c1.015,0,1.627,0.199,1.997,0.515c0.372,0.306,0.487,0.71,0.487,1.125c0,0.998-1.015,1.618-1.818,1.747
		c-0.148,0.021-0.169,0.068-0.127,0.237c0.138,0.533,0.338,1.185,0.528,1.709c0.244,0.659,0.36,0.957,1.047,1.025
		c0.074,0.038,0.021,0.159,0,0.188c-0.169,0.021-0.35,0.029-0.666,0.029c-0.507,0-0.804-0.089-0.983-0.583
		c-0.265-0.73-0.455-1.303-0.624-1.915c-0.127-0.454-0.189-0.493-0.528-0.493c-0.55,0-0.603,0.028-0.698,0.315l-0.413,1.225
		c-0.307,0.919-0.338,1.106,0.212,1.176l0.253,0.028c0.063,0.068,0.031,0.206-0.043,0.247c-0.444-0.02-0.846-0.029-1.268-0.029
		c-0.434,0-0.792,0.011-1.122,0.029c-0.084-0.049-0.084-0.187-0.011-0.247l0.233-0.028c0.508-0.069,0.612-0.168,0.951-1.176
		L9.599,15.409z"/>
	<path fill="#24242D" d="M17.464,17.532c0.18,0,0.201-0.021,0.211-0.197l0.169-2.162c0.011-0.138,0-0.257-0.021-0.257
		c-0.031,0-0.095,0.06-0.402,0.483l-1.469,1.984c-0.084,0.117-0.053,0.148,0.18,0.148H17.464z M19.146,20.307
		c0.062,0.06,0.031,0.208-0.042,0.248c-0.328-0.021-0.73-0.03-1.195-0.03c-0.486,0-0.899,0.011-1.217,0.03
		c-0.105-0.039-0.105-0.208-0.009-0.248l0.327-0.029c0.232-0.021,0.37-0.098,0.412-0.158c0.032-0.05,0.085-0.188,0.116-0.611
		l0.096-1.323c0.022-0.228,0-0.257-0.222-0.257h-1.523c-0.317,0-0.338,0.009-0.539,0.306l-0.772,1.125
		c-0.37,0.544-0.476,0.692-0.476,0.74c0,0.061,0.043,0.119,0.244,0.149l0.39,0.06c0.086,0.061,0.054,0.208-0.021,0.247
		c-0.327-0.02-0.656-0.028-1.079-0.028c-0.413,0-0.793,0.01-1.175,0.028c-0.052-0.06-0.042-0.187,0.022-0.247l0.286-0.028
		c0.317-0.03,0.55-0.178,0.762-0.415c0.307-0.356,0.921-1.146,1.745-2.222l1.861-2.449c0.455-0.593,0.592-0.849,0.634-1.017
		c0.36-0.051,0.75-0.327,0.772-0.327c0.053,0,0.127,0.039,0.127,0.079c0,0.168-0.054,0.593-0.106,1.451l-0.211,3.732
		c-0.064,1.096-0.054,1.105,0.518,1.165L19.146,20.307z"/>
	<path fill="#24242D" d="M21.333,14.334c-0.073-0.06-0.042-0.179,0.032-0.237c0.455-0.069,1.08-0.119,1.777-0.119
		c1.046,0,1.713,0.188,2.094,0.484c0.423,0.336,0.582,0.749,0.582,1.225c0,0.661-0.392,1.175-0.899,1.511
		c-0.54,0.346-1.354,0.504-1.956,0.504c-0.084-0.03-0.096-0.14-0.032-0.207c0.782-0.089,1.999-0.622,1.999-1.966
		c0-0.86-0.593-1.243-1.428-1.243c-0.338,0-0.359,0.04-0.465,0.345l-1.491,4.474c-0.307,0.917-0.338,1.136,0.201,1.174l0.381,0.029
		c0.063,0.067,0.031,0.208-0.042,0.248c-0.508-0.021-0.877-0.03-1.385-0.03c-0.433,0-0.792,0.011-1.215,0.03
		c-0.084-0.049-0.084-0.188-0.011-0.248l0.328-0.029c0.507-0.049,0.613-0.167,0.951-1.174l1.364-4.089
		c0.158-0.474,0.116-0.611-0.274-0.642L21.333,14.334z"/>
	<path fill="#24242D" d="M31.144,16.938c0.487,0,0.487-0.008,0.561-0.216l0.434-1.294c0.307-0.928,0.338-1.076-0.233-1.165
		l-0.264-0.038c-0.053-0.068-0.042-0.206,0.064-0.248c0.434,0.021,0.782,0.03,1.237,0.03c0.434,0,0.762-0.011,1.227-0.03
		c0.075,0.04,0.095,0.188,0,0.248l-0.255,0.038c-0.592,0.089-0.655,0.188-0.983,1.165l-1.227,3.675
		c-0.306,0.918-0.338,1.114,0.201,1.174l0.286,0.029c0.063,0.1,0.031,0.205-0.042,0.248c-0.497-0.021-0.836-0.03-1.29-0.03
		c-0.445,0-0.793,0.011-1.227,0.03c-0.085-0.051-0.085-0.178-0.011-0.248l0.338-0.029c0.497-0.038,0.614-0.167,0.952-1.174
		l0.508-1.502c0.085-0.256,0.074-0.267-0.38-0.267h-2.876c-0.338,0-0.327,0.029-0.401,0.237l-0.519,1.531
		c-0.307,0.918-0.338,1.125,0.201,1.174l0.327,0.029c0.064,0.079,0.032,0.205-0.042,0.248c-0.519-0.021-0.877-0.03-1.333-0.03
		c-0.434,0-0.793,0.011-1.131,0.03c-0.085-0.051-0.085-0.178-0.011-0.248l0.243-0.029c0.507-0.06,0.612-0.167,0.951-1.174
		l1.238-3.675c0.316-0.928,0.338-1.076-0.244-1.165l-0.254-0.038c-0.064-0.089-0.053-0.206,0.062-0.248
		c0.423,0.021,0.783,0.03,1.227,0.03c0.455,0,0.782-0.011,1.227-0.03c0.073,0.04,0.095,0.168,0,0.248l-0.242,0.038
		c-0.602,0.1-0.644,0.188-0.982,1.165l-0.434,1.275c-0.074,0.227-0.074,0.237,0.307,0.237h2.792V16.938z"/>
	<path fill="#24242D" d="M35.731,15.43c0.317-0.929,0.338-1.077-0.244-1.166l-0.252-0.038c-0.064-0.078-0.054-0.206,0.063-0.248
		c0.423,0.021,0.782,0.03,1.227,0.03c0.434,0,0.761-0.011,1.269-0.03c0.075,0.04,0.095,0.197,0,0.248l-0.287,0.038
		c-0.613,0.089-0.655,0.188-0.983,1.166l-1.237,3.674c-0.307,0.918-0.338,1.125,0.201,1.174l0.327,0.029
		c0.064,0.067,0.032,0.208-0.042,0.248c-0.519-0.021-0.879-0.03-1.333-0.03c-0.434,0-0.793,0.011-1.217,0.03
		c-0.085-0.049-0.085-0.188-0.01-0.248l0.328-0.029c0.507-0.049,0.613-0.167,0.951-1.174L35.731,15.43z"/>
	<path fill="#24242D" d="M44.57,14.165c-0.169,0.385-0.381,0.959-0.476,1.325c-0.042,0.077-0.254,0.066-0.286-0.011
		c0.202-0.86-0.063-1.324-1.151-1.324c-0.75,0-1.734,0.218-2.707,1.106c-0.528,0.493-1.247,1.649-1.247,2.952
		c0,1.402,0.708,2.163,2.052,2.163c1.1,0,1.766-0.602,2.273-1.383c0.106-0.039,0.222-0.02,0.253,0.069
		c-0.095,0.267-0.328,0.79-0.688,1.392c-0.232,0-0.518,0.061-0.834,0.109c-0.307,0.05-0.655,0.117-1.026,0.117
		c-1.375,0-2.96-0.583-2.96-2.656c0-1.144,0.646-2.24,1.513-2.971c0.888-0.749,2.168-1.204,3.553-1.204
		C43.66,13.85,44.305,14.066,44.57,14.165"/>
	<path fill="#24242D" d="M48.257,19.398c-0.19,0.582,0.032,0.81,0.962,0.81c3.056,0,3.902-2.398,3.902-3.466
		c0-0.937-0.158-2.458-2.791-2.458c-0.328,0-0.391,0.068-0.498,0.384L48.257,19.398z M48.892,15.104c0.2-0.611,0.127-0.7-0.181-0.74
		l-0.422-0.051c-0.064-0.038-0.074-0.187,0-0.237c0.158-0.019,1.078-0.099,1.966-0.099c3.045,0,3.806,1.441,3.806,2.695
		c0,1.284-0.666,2.349-1.67,2.992c-1.194,0.759-2.569,0.889-3.532,0.889c-0.316,0-0.698-0.03-1.322-0.03
		c-0.434,0-0.792,0.011-1.162,0.03c-0.085-0.049-0.085-0.188-0.011-0.248l0.275-0.03c0.485-0.048,0.603-0.166,0.93-1.173
		L48.892,15.104z"/>
	<path fill="#24242D" d="M56.599,15.43c0.306-0.929,0.327-1.057-0.232-1.166l-0.212-0.038c-0.063-0.078-0.053-0.206,0.064-0.248
		c0.19,0.011,0.37,0.021,0.561,0.021c0.19,0.01,0.391,0.01,0.613,0.01h1.998c0.677,0,1.174,0,1.491-0.03
		c-0.074,0.169-0.328,0.959-0.434,1.313c-0.04,0.079-0.232,0.069-0.265-0.01c0.065-0.515,0.095-0.76-0.369-0.879
		c-0.244-0.061-0.571-0.089-1.12-0.089H58.07c-0.276,0-0.316,0.038-0.414,0.336l-0.676,2.023c-0.095,0.276-0.105,0.287,0.19,0.287
		h0.53c1.004,0,1.213-0.06,1.458-0.483l0.168-0.296c0.043-0.068,0.244-0.061,0.266,0.021c-0.073,0.167-0.244,0.593-0.36,0.957
		c-0.127,0.376-0.223,0.741-0.273,0.957c-0.064,0.081-0.223,0.07-0.265-0.008v-0.277c0-0.514-0.275-0.522-1.089-0.522h-0.529
		c-0.296,0-0.318,0.01-0.413,0.286l-0.434,1.333c-0.179,0.553-0.284,0.888-0.179,1.087c0.074,0.138,0.274,0.205,1.174,0.205
		c1.162,0,1.586-0.06,2.251-1.025c0.085-0.051,0.201-0.029,0.244,0.059c-0.096,0.287-0.455,1.037-0.73,1.304
		c-0.348-0.011-0.75-0.011-1.173-0.021c-0.412,0-0.847-0.01-1.247-0.01h-1.247c-0.435,0-0.792,0.01-1.258,0.028
		c-0.085-0.049-0.085-0.187-0.011-0.247l0.37-0.028c0.509-0.04,0.612-0.168,0.951-1.176L56.599,15.43z"/>
	<path fill="#24242D" d="M60.34,19.991c-0.031-0.356,0.053-0.85,0.19-1.146c0.063-0.048,0.17-0.048,0.222,0.021
		c0.073,0.859,0.51,1.512,1.564,1.512c0.678,0,1.545-0.405,1.545-1.392c0-0.731-0.498-1.136-1.058-1.551
		c-0.551-0.415-1.101-1.008-1.101-1.718c0-1.076,0.909-1.867,2.316-1.867c0.686,0,1.3,0.247,1.533,0.396
		c-0.149,0.247-0.286,0.798-0.392,1.146c-0.073,0.06-0.222,0.049-0.286-0.011c0.148-0.671-0.051-1.225-0.991-1.225
		c-0.964,0-1.428,0.583-1.428,1.264c0,0.662,0.645,1.147,1.025,1.423c0.645,0.464,1.142,0.986,1.142,1.796
		c0,1.176-0.962,2.044-2.432,2.044C61.429,20.682,60.7,20.464,60.34,19.991"/>
	<path fill="#24242D" d="M67.582,15.43c0.317-0.929,0.339-1.077-0.244-1.166l-0.254-0.038c-0.062-0.078-0.052-0.206,0.065-0.248
		c0.424,0.021,0.782,0.03,1.227,0.03c0.432,0,0.761-0.011,1.269-0.03c0.074,0.04,0.096,0.197,0,0.248l-0.286,0.038
		c-0.612,0.089-0.655,0.188-0.983,1.166l-1.238,3.674c-0.307,0.918-0.338,1.125,0.201,1.174l0.328,0.029
		c0.064,0.067,0.032,0.208-0.042,0.248c-0.519-0.021-0.878-0.03-1.332-0.03c-0.434,0-0.793,0.011-1.216,0.03
		c-0.085-0.049-0.085-0.188-0.011-0.248l0.327-0.029c0.508-0.049,0.613-0.167,0.952-1.174L67.582,15.43z"/>
	<path fill="#24242D" d="M74.295,18.826c0.244-0.72,0.253-0.857-0.382-0.938l-0.412-0.049c-0.073-0.061-0.062-0.206,0.022-0.248
		c0.466,0.021,0.824,0.03,1.269,0.03c0.455,0,0.952-0.011,1.205-0.03c0.073,0.041,0.085,0.197-0.011,0.248l-0.18,0.049
		c-0.402,0.109-0.443,0.149-0.708,0.938l-0.328,0.978c-0.042,0.128-0.022,0.236,0.084,0.295c0.012,0.039,0,0.098-0.043,0.138
		c-0.729,0.237-1.659,0.445-2.22,0.445c-1.871,0-2.982-0.959-2.982-2.567c0-0.957,0.434-2.144,1.523-3.031
		c1.016-0.83,2.21-1.234,3.679-1.234c0.899,0,1.565,0.217,1.808,0.316c-0.178,0.355-0.39,0.928-0.495,1.312
		c-0.042,0.078-0.234,0.068-0.265-0.01c0.19-0.907-0.147-1.312-1.172-1.312c-1.247,0-2.073,0.444-2.771,1.058
		c-0.761,0.66-1.374,1.984-1.374,3.109c0,1.57,1.034,2.055,2.094,2.055c0.739,0,1.162-0.1,1.383-0.742L74.295,18.826z"/>
	<path fill="#24242D" d="M78.447,15.695c0.192-0.571,0.35-0.996,0.35-1.174c0-0.139-0.095-0.188-0.275-0.218l-0.423-0.078
		c-0.084-0.068-0.053-0.217,0.054-0.248c0.157,0.011,0.316,0.011,0.495,0.021c0.17,0,0.36,0.01,0.583,0.01h0.655v0.139
		c0,0.107,0.105,0.475,0.518,1.43l1.066,2.46c0.212,0.474,0.393,0.898,0.521,1.115c0.073,0,0.126-0.119,0.179-0.277l0.837-2.479
		c0.317-0.938,0.507-1.637,0.507-1.827c0-0.177-0.022-0.246-0.264-0.285l-0.412-0.061c-0.064-0.089-0.021-0.207,0.065-0.247
		c0.368,0.021,0.801,0.028,1.192,0.028c0.402,0,0.698-0.008,1.006-0.028c0.053,0.039,0.072,0.188,0.011,0.247l-0.245,0.04
		c-0.242,0.04-0.454,0.089-0.55,0.178c-0.147,0.14-0.54,1.027-0.866,1.985l-0.763,2.211c-0.359,1.049-0.475,1.423-0.666,2.034
		c-0.062,0.061-0.168,0.07-0.253,0.061c-0.138-0.396-0.285-0.83-0.982-2.41l-0.836-1.896c-0.287-0.651-0.539-1.303-0.708-1.629
		c-0.054,0-0.158,0.326-0.338,0.868l-0.825,2.567c-0.223,0.682-0.402,1.472-0.445,1.639c-0.083,0.327,0.159,0.367,0.521,0.405
		l0.242,0.029c0.064,0.06,0.043,0.199-0.03,0.248c-0.316-0.021-0.72-0.03-1.205-0.03c-0.381,0-0.783,0.011-1.111,0.03
		c-0.062-0.039-0.104-0.178-0.021-0.248l0.265-0.029c0.128-0.01,0.371-0.06,0.52-0.167c0.18-0.128,0.391-0.632,0.803-1.886
		L78.447,15.695z"/>
	<path fill="#24242D" d="M86.409,15.43c0.306-0.929,0.327-1.057-0.232-1.166l-0.212-0.038c-0.063-0.078-0.052-0.206,0.063-0.248
		c0.19,0.011,0.37,0.021,0.562,0.021c0.19,0.01,0.39,0.01,0.614,0.01h1.997c0.676,0,1.173,0,1.491-0.03
		c-0.073,0.169-0.328,0.959-0.434,1.313c-0.042,0.079-0.232,0.069-0.264-0.01c0.063-0.515,0.096-0.76-0.37-0.879
		c-0.244-0.061-0.57-0.089-1.121-0.089h-0.625c-0.274,0-0.317,0.038-0.412,0.336l-0.676,2.023c-0.097,0.276-0.106,0.287,0.188,0.287
		h0.529c1.004,0,1.216-0.06,1.459-0.483l0.17-0.296c0.042-0.068,0.243-0.061,0.264,0.021c-0.073,0.167-0.245,0.593-0.359,0.957
		c-0.127,0.376-0.223,0.741-0.275,0.957c-0.063,0.081-0.221,0.07-0.263-0.008v-0.277c0-0.514-0.276-0.522-1.091-0.522h-0.527
		c-0.296,0-0.317,0.01-0.413,0.286l-0.433,1.333c-0.18,0.553-0.285,0.888-0.18,1.087c0.072,0.138,0.274,0.205,1.174,0.205
		c1.163,0,1.587-0.06,2.252-1.025c0.084-0.051,0.201-0.029,0.243,0.059c-0.096,0.287-0.455,1.037-0.729,1.304
		c-0.349-0.011-0.751-0.011-1.174-0.021c-0.414,0-0.846-0.01-1.247-0.01H85.13c-0.432,0-0.791,0.01-1.256,0.028
		c-0.085-0.049-0.085-0.187-0.013-0.247l0.372-0.028c0.507-0.04,0.613-0.168,0.952-1.176L86.409,15.43z"/>
	<path fill="#24242D" d="M92.719,16.86c-0.126,0.406-0.115,0.415,0.424,0.415c1.1,0,2.199-0.701,2.232-1.787
		c0.021-0.77-0.476-1.203-1.385-1.203c-0.413,0-0.444,0.06-0.528,0.315L92.719,16.86z M92.401,15.409
		c0.317-0.938,0.265-1.026-0.093-1.066l-0.402-0.039c-0.054-0.078-0.043-0.207,0.053-0.246c0.603-0.069,1.205-0.08,1.798-0.08
		c1.015,0,1.627,0.199,1.999,0.515c0.369,0.306,0.483,0.71,0.483,1.125c0,0.998-1.015,1.618-1.818,1.747
		c-0.148,0.021-0.168,0.068-0.126,0.237c0.138,0.533,0.338,1.185,0.527,1.709c0.244,0.659,0.36,0.957,1.049,1.025
		c0.073,0.038,0.021,0.159,0,0.188c-0.17,0.021-0.35,0.029-0.667,0.029c-0.507,0-0.803-0.089-0.983-0.583
		c-0.264-0.73-0.454-1.303-0.624-1.915c-0.126-0.454-0.189-0.493-0.528-0.493c-0.549,0-0.603,0.028-0.697,0.315l-0.412,1.225
		c-0.308,0.919-0.339,1.106,0.21,1.176l0.255,0.028c0.062,0.068,0.03,0.206-0.044,0.247c-0.444-0.02-0.845-0.029-1.269-0.029
		c-0.432,0-0.792,0.011-1.12,0.029c-0.085-0.049-0.085-0.187-0.011-0.247l0.233-0.028c0.508-0.069,0.611-0.168,0.95-1.176
		L92.401,15.409z"/>
	<g>
		<path fill="#24242D" d="M1.129,3.758h2.822v8.439H1.129V3.758z"/>
		<path fill="#24242D" d="M4.24,10.932l1.507-1.796c0.917,0.7,1.965,0.989,2.954,0.989c0.506,0,0.723-0.133,0.723-0.362V9.737
			c0-0.24-0.265-0.374-1.168-0.554C6.362,8.797,4.698,8.255,4.698,6.471V6.447c0-1.604,1.254-2.845,3.581-2.845
			c1.628,0,2.833,0.385,3.81,1.157l-1.375,1.904C9.919,6.084,8.966,5.832,8.183,5.832c-0.421,0-0.615,0.145-0.615,0.35v0.024
			c0,0.229,0.229,0.375,1.122,0.542c2.158,0.398,3.604,1.025,3.604,2.725v0.024c0,1.771-1.458,2.856-3.726,2.856
			C6.856,12.353,5.313,11.872,4.24,10.932z"/>
		<path fill="#24242D" d="M12.944,3.758h4.124c1.495,0,2.448,0.374,3.038,0.965c0.506,0.507,0.772,1.134,0.772,2.001v0.023
			c0,1.23-0.639,2.085-1.665,2.58l1.965,2.87h-3.219l-1.592-2.411h-0.023h-0.58v2.411h-2.821L12.944,3.758L12.944,3.758z
			 M16.983,7.773c0.675,0,1.084-0.302,1.084-0.82V6.929c0-0.542-0.422-0.808-1.074-0.808h-1.229v1.652H16.983z"/>
		<path fill="#24242D" d="M24.928,3.698h2.796l3.557,8.499h-3.062l-0.447-1.133h-2.954l-0.434,1.133h-3.014L24.928,3.698z
			 M27.074,9.063l-0.771-2.05l-0.772,2.05H27.074z"/>
		<path fill="#24242D" d="M31.873,3.758h7.198v2.315h-4.425v0.855h4.123v2.038h-4.123v0.917h4.485v2.314h-7.257L31.873,3.758
			L31.873,3.758z"/>
		<path fill="#24242D" d="M40.12,3.758h2.822v6.029h3.966v2.411H40.12V3.758z"/>
		<path fill="#24242D" d="M50.392,8.001V7.978c0-2.448,2.012-4.401,4.617-4.401s4.592,1.929,4.592,4.375v0.024
			c0,2.448-2.012,4.401-4.615,4.401C52.381,12.378,50.392,10.449,50.392,8.001z M56.756,8.001V7.978
			c0-1.001-0.686-1.905-1.771-1.905c-1.074,0-1.748,0.893-1.748,1.881v0.024c0,1,0.687,1.904,1.771,1.904
			C56.08,9.883,56.756,8.99,56.756,8.001z"/>
		<path fill="#24242D" d="M60.181,8.001V7.978c0-2.52,1.966-4.401,4.486-4.401c1.856,0,3.109,0.903,3.821,2.193l-2.327,1.362
			c-0.312-0.603-0.759-1.025-1.53-1.025c-0.952,0-1.579,0.832-1.579,1.844v0.024c0,1.098,0.651,1.869,1.579,1.869
			c0.795,0,1.241-0.434,1.591-1.062l2.328,1.314c-0.711,1.254-1.893,2.278-3.99,2.278C62.219,12.378,60.181,10.618,60.181,8.001z"/>
		<path fill="#24242D" d="M69.09,3.758h2.822v2.978h2.58V3.758h2.822v8.439h-2.822V9.171h-2.58v3.026H69.09V3.758z"/>
		<path fill="#24242D" d="M77.844,8.001V7.978c0-2.448,2.014-4.401,4.617-4.401c2.605,0,4.594,1.929,4.594,4.375v0.024
			c0,2.448-2.014,4.401-4.618,4.401C79.835,12.378,77.844,10.449,77.844,8.001z M84.21,8.001V7.978c0-1.001-0.688-1.905-1.773-1.905
			c-1.072,0-1.748,0.893-1.748,1.881v0.024c0,1,0.688,1.904,1.772,1.904C83.535,9.883,84.21,8.99,84.21,8.001z"/>
		<path fill="#24242D" d="M89.997,3.698h2.796l3.557,8.499h-3.062l-0.446-1.133h-2.953l-0.434,1.133h-3.014L89.997,3.698z
			 M92.144,9.063l-0.773-2.05l-0.771,2.05H92.144z"/>
	</g>
</g>
</svg>
